<?xml version="1.0" encoding="utf-8"?>
<!-- Generator: Adobe Illustrator 25.2.0, SVG Export Plug-In . SVG Version: 6.00 Build 0)  -->
<svg version="1.1" id="Layer_1" xmlns="http://www.w3.org/2000/svg" xmlns:xlink="http://www.w3.org/1999/xlink" x="0px" y="0px"
	 viewBox="0 0 1080 1080" style="enable-background:new 0 0 1080 1080;" xml:space="preserve">
<g>
	<path d="M229.8,407.6c-27.1,5.5-44.5,16.9-48.6,44.5c-2.3,15.8-7.8,31.3-13.2,46.4c-7.5,20.9-26.6,30.7-45.8,24.8
		c-21.3-6.5-32.5-24.7-26.8-46.9c7.9-30.4,16.1-60.8,26.5-90.4c3.3-9.6,12.8-17.9,21.3-24.5c8.1-6.3,19.4-8.3,27.8-14.3
		c63-44.6,130.4-39.7,198.4-16.2c17.3,6,32.3,19.6,47,31.4c8,6.4,13.2,16.2,19.6,24.5c25,32.1,25,32.1,64.6,21.6
		c7.8-2.1,15.5-4.7,23.3-6.2c20.5-4,40.6,7.1,45.7,26.3c5.5,20.7-1.7,39-21.4,45.8c-32.6,11.2-66.4,20.2-100.4,25.8
		c-10.4,1.7-25.1-8.7-34.4-17.3c-12.7-11.9-22.2-27.4-36.5-45.8c-8.4,35.8-15.8,67.1-23.6,100.5c25,7.9,48.6,15.2,72.2,22.8
		c29,9.5,39.6,22.9,39.8,52.9c0.4,53.9,0.1,107.7,0.1,163.4c-28,0-57.3,0-91.8,0c0-38.9-0.8-77.3,0.4-115.8
		c0.5-15.6-4.6-22.9-19.6-27.2c-34.1-9.7-67.7-20.8-101.4-32c-30.3-10-40.4-27.1-37.1-58.7C220.8,498.3,225.2,453.5,229.8,407.6z"/>
	<path d="M881.3,632.1c0,92.9,0,182.3,0,271.8c0,29-0.9,58.1,0.3,87.1c0.8,19.9-7.9,25.1-26.1,24.5c-27.4-1-54.9-1.3-82.3,0.1
		c-21,1.1-28.1-6.1-28-27.5c0.9-108.9,0.4-217.8,0.4-326.7c0-8.8,0-17.6,0-30.3c-16.2,0-31.2,0.8-46.1-0.2
		c-22.5-1.5-30.6-16.6-17.2-34.6c37.6-50.4,76-100.2,114.8-149.8c10.8-13.7,24.1-12.4,34.6,1c38.1,49.1,76.1,98.2,113.2,148
		c13.9,18.7,5.7,35-17.4,36.5C913.3,632.9,898.8,632.1,881.3,632.1z"/>
	<path d="M706.9,401.7c-86.6-1.5-152.2-70.6-150.3-158.4c1.7-81.9,71.2-148.1,154.5-147.3c84,0.9,152.2,71.7,150.9,156.5
		C860.6,335.8,790.5,403.2,706.9,401.7z M691.4,259c-10.2-11.9-15.2-22.3-23.2-25.7c-9.4-4-21.4-1.8-32.2-2.3
		c0.2,10.8-3.5,24.1,1.5,31.8c8.9,13.9,23.2,24.3,35,36.5c12.7,13.1,25,12.6,37.6,0.1c22.9-22.7,45.8-45.3,68.9-67.9
		c11.8-11.5,17.6-24.5,4.2-37.6c-12.7-12.4-25.2-6-35.6,5.1C729.9,217.7,712.4,236.6,691.4,259z"/>
	<path d="M687,874.3c0,38.7-0.6,77.4,0.3,116c0.4,18.9-6.8,25.9-25.6,25.2c-29-1.1-58-0.8-87-0.1c-16,0.4-23.5-4.4-23.4-21.8
		c0.6-80.6,0.4-161.2,0.1-241.8c-0.1-14.3,5.6-20.8,19.8-20.7c31.4,0.2,62.9,0.2,94.3,0c17.1-0.1,21.9,9.1,21.8,24.7
		C686.7,795.3,687,834.8,687,874.3z"/>
	<path d="M490.7,917.5c0,25.8-0.2,51.6,0.1,77.5c0.2,14-5.2,20.7-20,20.4c-31.5-0.5-62.9-0.5-94.4,0c-14.2,0.2-21.2-5.3-21.2-19.6
		c0.1-53.3-0.6-106.5,0.9-159.7c0.2-6.6,11.5-18,18.1-18.4c32.2-1.9,64.5-0.6,96.8-1c14.9-0.2,19.9,7.3,19.8,21
		C490.5,864.3,490.7,890.9,490.7,917.5z"/>
	<path d="M357.6,299.2c-44.3,0.1-80.2-35.1-80.7-79.1c-0.5-44.4,36.8-81.5,81.5-81c44.1,0.5,79.1,36.2,78.9,80.6
		C437.1,264.3,402.2,299.1,357.6,299.2z"/>
	<path d="M180.4,862.1c16.5-72.4,32.5-142.5,49.1-215.5c29.3,9.3,57.2,18,87.7,27.7c-9.4,41.8-18.3,82.3-27.6,122.8
		c-15.4,67.2-15.5,67.2-85,66.4C197.7,863.4,190.7,862.7,180.4,862.1z"/>
	<path d="M228.2,1015.3c-16.1,0-32.2-0.4-48.3,0.1c-14.5,0.5-20.3-6.1-20-20.4c0.5-24.2,0.6-48.3,0-72.5
		c-0.4-14.5,5.9-20.4,20.1-20.3c32.2,0.3,64.5-0.9,96.6,1c6.7,0.4,17.5,11.5,18.1,18.4c2.2,24.8,2.2,50,0,74.8
		c-0.6,6.8-11,16.8-18.2,18C260.7,1017.2,244.3,1015.3,228.2,1015.3z"/>
</g>
</svg>
