<svg width="103" height="102" viewBox="0 0 103 102" fill="none" xmlns="http://www.w3.org/2000/svg">
<path d="M10.4457 5.58871C8.94453 5.41733 7.8694 4.81749 7.57526 3.27503C7.27098 1.64689 8.38668 0.179417 9.98923 0.0401682C10.7195 -0.0241007 11.4599 0.00803345 12.2003 0.00803345C38.9163 0.00803345 65.6322 0.00803345 92.3482 0.00803345C92.977 0.00803345 93.6262 0.0294566 94.2144 0.211552C95.391 0.575742 96.0604 1.67902 95.9996 2.91085C95.9387 4.12124 95.1273 5.11741 93.9609 5.41733C93.6972 5.4816 93.4233 5.53516 93.0785 5.61014C93.0785 6.14571 93.0785 6.65986 93.0785 7.17401C93.0785 22.1165 93.0785 37.059 93.0785 52.0016C93.0785 55.0543 92.4699 57.9464 90.9891 60.7207C87.9158 59.0069 84.7817 58.5677 81.6679 60.4636C78.5338 62.381 77.2761 65.3909 77.4891 69.2256C71.8903 69.2256 66.3625 69.2256 60.7536 69.2256C60.7435 65.9372 59.7089 63.1736 57.1833 61.1813C55.4287 59.7995 53.4305 59.1354 51.26 59.2639C46.2901 59.5532 43.5718 62.8844 43.0951 69.247C42.7401 69.2685 42.375 69.3113 41.9997 69.3113C37.192 69.3113 32.3844 69.2899 27.5666 69.3327C26.7146 69.3434 26.3697 69.1828 26.3292 68.1438C26.0452 61.3955 19.0264 57.1752 13.3363 60.2815C13.0929 60.4208 12.8393 60.5386 12.5148 60.6886C10.9832 57.9357 10.4355 54.9793 10.4355 51.8516C10.4457 36.8662 10.4355 21.8916 10.4355 6.90623C10.4457 6.49919 10.4457 6.10287 10.4457 5.58871ZM51.7671 6.89551C40.813 6.89551 29.8588 6.89551 18.9148 6.89551C15.9633 6.89551 14.6955 8.22374 14.6955 11.3622C14.6853 23.7447 14.6955 36.1271 14.6955 48.5096C14.6955 51.5624 15.9937 52.9335 18.8641 52.9335C40.8028 52.9335 62.7416 52.9335 84.6803 52.9335C87.5405 52.9335 88.849 51.5517 88.849 48.5096C88.849 36.0843 88.849 23.6697 88.849 11.2444C88.849 8.2773 87.5304 6.8848 84.731 6.8848C73.7464 6.89551 62.7517 6.89551 51.7671 6.89551Z" fill="black"/>
<path d="M20.426 82.4757C24.6454 82.8399 28.0534 84.6716 30.8731 87.7136C33.1957 90.2308 34.3013 93.2729 34.0782 96.797C34.0579 97.1076 33.7739 97.5468 33.5102 97.6646C26.7247 100.717 19.6958 101.971 12.3423 100.899C8.6402 100.364 5.09024 99.282 1.63157 97.7931C1.01287 97.5253 0.810012 97.2254 0.779583 96.5185C0.475301 88.4313 7.49407 83.1398 12.9407 82.5614C13.4276 82.5079 13.9043 82.4329 14.4114 82.3686C14.5636 80.794 14.6143 79.4337 13.4174 78.159C12.464 77.1414 11.9467 75.6739 11.2165 74.4314C11.0745 74.185 10.8513 73.9387 10.6079 73.8316C9.12705 73.2103 8.77205 71.4857 9.97904 70.2861C10.405 69.8683 10.4659 69.5577 10.3645 68.9792C9.58347 64.3519 13.7724 60.0887 18.3062 60.8707C22.698 61.6205 25.2134 65.0481 24.8584 69.7505C24.8381 70.0397 24.899 70.4146 25.0613 70.6395C25.8727 71.8392 25.467 73.3388 24.1789 73.8851C23.9151 74.0029 23.6819 74.3029 23.5196 74.5706C22.6372 75.9738 21.775 77.3878 20.923 78.8231C20.71 79.1766 20.497 79.5729 20.4666 79.9692C20.3753 80.7619 20.426 81.576 20.426 82.4757Z" fill="black"/>
<path d="M48.7346 82.315C49.0491 80.6119 48.7752 79.2837 47.6291 78.009C46.7365 77.0236 46.2497 75.6418 45.56 74.4421C45.418 74.1957 45.205 73.9387 44.9615 73.8422C43.501 73.2424 43.075 71.55 44.2313 70.3931C44.7485 69.8683 44.7688 69.472 44.6674 68.7971C44.1197 65.2838 46.7872 61.5562 50.2155 60.967C55.5303 60.0566 59.6381 64.0627 59.2019 69.7398C59.1816 70.0397 59.2324 70.4039 59.3845 70.6395C60.2061 71.8285 59.8105 73.3495 58.5427 73.8958C58.2789 74.0136 58.0355 74.2921 57.8732 74.5599C57.0111 75.9417 56.2098 77.3556 55.3274 78.716C54.9521 79.2837 54.4653 81.7473 54.8406 82.2722C55.0028 82.4971 55.439 82.54 55.7635 82.5935C61.0986 83.579 65.247 86.2997 67.6305 91.5912C68.3912 93.2729 68.5332 95.0831 68.4115 96.9148C68.3912 97.204 68.0362 97.5789 67.7523 97.7074C58.3297 101.949 48.7549 102.463 39.0179 99.0035C37.9935 98.6393 37.0096 98.1359 35.9751 97.7824C35.3361 97.5682 35.1332 97.2361 35.1332 96.5185C35.1028 90.2094 39.0078 84.8858 45.1238 83.0327C46.2902 82.6792 47.5175 82.5507 48.7346 82.315Z" fill="black"/>
<path d="M69.5373 97.3965C69.2431 93.2511 70.4298 89.7377 73.2901 86.8564C76.0388 84.0928 79.2946 82.5503 83.1083 82.4218C83.2503 80.7937 83.301 79.4333 82.0838 78.1586C81.1304 77.1518 80.6233 75.6736 79.9032 74.4203C79.7713 74.1954 79.5989 73.949 79.3859 73.8526C77.8036 73.1564 77.4283 71.5175 78.6556 70.2857C79.0816 69.8679 79.1424 69.5573 79.0309 68.9789C78.1992 64.4265 82.449 60.1098 86.9726 60.8703C91.3442 61.5987 93.8798 65.0585 93.5147 69.7608C93.4944 70.05 93.5553 70.4249 93.7074 70.6606C94.529 71.8389 94.1131 73.3599 92.8351 73.8955C92.5714 74.0026 92.3483 74.3132 92.186 74.581C91.3949 75.8771 90.7254 77.2696 89.8329 78.48C89.346 79.1334 89.0012 79.6904 89.0823 80.5259C89.1432 81.1471 89.0925 81.7684 89.0925 82.2933C90.624 82.711 92.0947 82.936 93.4437 83.5037C97.6834 85.2925 101.02 88.1203 102.4 92.9726C102.42 93.0476 102.45 93.1119 102.471 93.1868C103.363 96.8823 103.089 97.4393 99.722 98.714C89.7619 102.495 79.9234 102.067 70.1966 97.7499C69.9836 97.6321 69.7706 97.5143 69.5373 97.3965Z" fill="black"/>
<path d="M60.4492 34.9914C65.5206 29.2715 70.5311 23.6372 75.6938 17.8102C74.7606 17.8102 74.0811 17.8316 73.3914 17.8102C72.0728 17.7674 71.1802 16.8569 71.1092 15.5501C71.0484 14.254 71.8699 13.1614 73.1682 13.0757C75.8256 12.9151 78.4931 12.8186 81.1607 12.7758C82.3575 12.7544 83.0777 13.5685 83.1284 14.9074C83.2399 17.6067 83.3109 20.3167 83.3617 23.0267C83.3819 24.4192 82.4082 25.501 81.1911 25.5546C80.0044 25.6082 79.0409 24.7084 78.8583 23.3266C78.767 22.5982 78.7569 21.8484 78.7061 20.8844C78.3512 21.2593 78.0874 21.5057 77.844 21.7842C72.8741 27.3863 67.9041 32.9776 62.9342 38.5798C61.1694 40.5614 60.5304 40.6042 58.4917 38.9439C53.9883 35.2913 49.4647 31.6494 44.8599 27.9433C43.3892 29.2179 41.9387 30.4819 40.4782 31.7565C34.9606 36.5767 29.453 41.3969 23.9354 46.217C23.692 46.4313 23.4486 46.6455 23.1747 46.8062C22.2923 47.331 21.349 47.1918 20.6694 46.4527C20.0305 45.7564 19.9189 44.6532 20.4666 43.7855C20.7202 43.3892 21.065 43.0572 21.4099 42.7465C28.4895 36.5446 35.5691 30.3533 42.6487 24.1514C44.5049 22.5232 44.9917 22.5125 46.9391 24.0871C51.4425 27.7076 55.8951 31.3174 60.4492 34.9914Z" fill="black"/>
</svg>
