<svg id="Layer_1" data-name="Layer 1" xmlns="http://www.w3.org/2000/svg" viewBox="0 0 64 64"><path d="M61.71,50.62H60.12V16.75a3.58,3.58,0,0,0-3.58-3.58H47.85v.08l-9-8.95a2.27,2.27,0,0,0-1.62-.68H15.85a2.3,2.3,0,0,0-2.29,2.3v7.25H7.46a3.58,3.58,0,0,0-3.58,3.58V50.62H2.29A2.3,2.3,0,0,0,0,52.92V55.5a4.89,4.89,0,0,0,4.88,4.88H59.12A4.89,4.89,0,0,0,64,55.5V52.92A2.3,2.3,0,0,0,61.71,50.62ZM50.44,18.54H54a.8.8,0,0,1,.79.79V46.46a.8.8,0,0,1-.79.79H50.44ZM47.67,15.9H39.1a.29.29,0,0,1-.29-.3V7Zm-32.11-10a.3.3,0,0,1,.29-.3h21v10a2.3,2.3,0,0,0,2.29,2.3h9.34V46.25H15.56Zm-2,41.33H10a.8.8,0,0,1-.79-.79V19.33a.8.8,0,0,1,.79-.79h3.52ZM5.88,16.75a1.58,1.58,0,0,1,1.58-1.58h6.1v2.37H10a1.79,1.79,0,0,0-1.79,1.79V46.46A1.79,1.79,0,0,0,10,48.25H54a1.79,1.79,0,0,0,1.79-1.79V19.33A1.79,1.79,0,0,0,54,17.54H50.44v-.75a2.27,2.27,0,0,0-.67-1.62h6.77a1.58,1.58,0,0,1,1.58,1.58V50.62H43.37A2.32,2.32,0,0,0,42.1,51l-3.23,2.15a.28.28,0,0,1-.16.05H25.29a.34.34,0,0,1-.17-.05L21.9,51a2.32,2.32,0,0,0-1.27-.39H5.88ZM62,55.5a2.89,2.89,0,0,1-2.88,2.88H4.88A2.89,2.89,0,0,1,2,55.5V52.92a.3.3,0,0,1,.29-.3H20.63a.3.3,0,0,1,.16.05L24,54.82a2.25,2.25,0,0,0,1.28.39H38.71A2.19,2.19,0,0,0,40,54.82l3.23-2.15a.3.3,0,0,1,.16-.05H61.71a.3.3,0,0,1,.29.3Z"/><path d="M43,24.15H21a1,1,0,0,0,0,2H43a1,1,0,0,0,0-2Z"/><path d="M21,18.4H32a1,1,0,0,0,0-2H21a1,1,0,0,0,0,2Z"/><path d="M43,31.9H21a1,1,0,0,0,0,2H43a1,1,0,0,0,0-2Z"/><path d="M43,39.65H21a1,1,0,0,0,0,2H43a1,1,0,0,0,0-2Z"/></svg>